<svg width="48" height="48" viewBox="0 0 48 48" fill="none" xmlns="http://www.w3.org/2000/svg">
<g clip-path="url(#clip0_833_5)">
<mask id="mask0_833_5" style="mask-type:luminance" maskUnits="userSpaceOnUse" x="0" y="0" width="48" height="48">
<path d="M48 24C48 10.7452 37.2548 0 24 0C10.7452 0 0 10.7452 0 24C0 37.2548 10.7452 48 24 48C37.2548 48 48 37.2548 48 24Z" fill="white"/>
</mask>
<g mask="url(#mask0_833_5)">
<path d="M48 24C48 10.7452 37.2548 0 24 0C10.7452 0 0 10.7452 0 24C0 37.2548 10.7452 48 24 48C37.2548 48 48 37.2548 48 24Z" fill="white"/>
<path d="M25.3618 4.39363C25.1209 4.63165 24.9521 4.9887 24.9521 5.17911C24.9521 5.36954 24.3498 6.15503 23.5786 6.89293C22.2293 8.2735 21.3376 8.91617 21.3376 8.55913C21.3376 8.01167 19.8678 7.5356 18.2051 7.5356C16.3979 7.5356 15.8919 7.67843 13.169 9.03519C11.699 9.77308 8.6629 12.4152 7.48215 14.0101C7.0484 14.6289 6.80752 14.7003 4.59065 14.9145C-1.36126 15.4858 -6.06008 16.5331 -10.3493 18.2469C-11.8433 18.8658 -12.036 18.9372 -12.3734 19.0086C-12.5662 19.0562 -13.0722 18.7706 -13.53 18.3421C-14.8794 17.0806 -16.783 16.5093 -19.4337 16.6283C-21.3373 16.6997 -21.8916 16.8188 -23.0963 17.4139C-26.4217 19.0562 -28.7831 22.3886 -28.976 25.721C-29.0965 27.53 -28.7831 28.4584 -27.6025 29.7437C-26.3012 31.1719 -25.3373 31.4575 -22.1083 31.4575C-19.8192 31.4338 -19.1445 31.5052 -19.1445 31.7431C-19.1445 32.1717 -16.8312 36.5038 -16.0602 37.5273C-14.783 39.2172 -12.5662 41.5738 -12.2529 41.5738C-12.0601 41.5738 -11.9156 41.669 -11.9156 41.788C-11.9156 42.145 -5.9155 47.5006 -5.04803 47.9053C-4.59019 48.1196 -4.10827 48.429 -3.93959 48.6194C-3.79501 48.8098 -3.55404 48.9526 -3.40947 48.9526C-3.28898 48.9526 -2.83115 49.2145 -2.42151 49.5001C-1.67451 50.0714 -0.566073 50.5237 3.26528 51.809C7.50627 53.2371 9.9159 53.6894 18.4461 54.6892C22.3979 55.1652 36.6631 55.07 40.133 54.5701C42.8319 54.1894 43.0246 54.118 47.7234 51.809C50.3981 50.4998 52.9524 49.1907 53.4103 48.905C54.3981 48.2624 55.1934 47.8101 57.5549 46.5723C58.5187 46.0725 59.9404 45.168 60.7356 44.5968L62.1814 43.5494H65.073C68.3741 43.5733 70.085 43.1685 72.061 41.9308C74.1091 40.6216 75.1935 39.1458 75.82 36.7655C76.0851 35.8134 76.061 35.4564 75.7236 34.3614C74.9044 31.8145 73.2899 30.0769 70.7839 29.1248C69.5549 28.625 66.3019 28.5774 65.4344 29.0297C64.8801 29.3153 64.7356 29.2676 63.7476 28.4584C62.0367 27.0777 56.1331 24.1025 51.6994 22.4124C51.097 22.1744 50.3981 21.9126 50.1331 21.8174C48.2295 21.0556 46.3981 20.3892 46.1813 20.3892C46.0366 20.3892 45.9161 20.2701 45.9161 20.1512C45.9161 20.0083 46.133 19.9131 46.374 19.9131C46.6391 19.9131 47.4342 19.675 48.1812 19.4133C50.5909 18.485 51.6994 16.5569 50.4464 15.3905C49.6994 14.7241 49.1934 14.7955 48.1331 15.7238C46.9041 16.8425 44.7595 17.4614 43.4584 17.0806L42.5186 16.7949L43.9161 15.8905C45.4825 14.8907 46.3018 13.9385 47.2656 12.0106C48.0126 10.4872 47.9403 9.67786 46.9764 9.059C46.0608 8.46391 45.386 8.89237 44.3499 10.7966C43.4101 12.5342 42.0608 13.8434 41.2655 13.7957C41.0005 13.772 40.4945 13.4625 40.133 13.1292C39.3138 12.3438 36.398 11.1298 35.3619 11.106C34.4221 11.106 33.1933 11.7488 33.0245 12.32C32.9523 12.558 32.4221 12.9627 31.8679 13.2245C31.3136 13.4864 30.2534 14.2004 29.5305 14.7955C28.4221 15.7 28.0848 15.8428 27.5064 15.7238C27.1209 15.6524 26.0365 15.5096 25.0968 15.4144C23.7474 15.2954 23.3859 15.1763 23.3136 14.8431C23.2413 14.5099 23.41 14.4385 24.0848 14.4385C25.41 14.4385 27.916 13.2006 29.3859 11.8202C31.2414 10.0825 31.4583 8.77336 30.0125 7.94025C29.0486 7.36898 28.4221 7.60701 27.8438 8.72575C27.1209 10.1539 24.6871 11.5821 23.0485 11.5821C22.4944 11.5821 22.5666 11.4869 23.6269 10.7728C25.9643 9.22562 28.0848 6.79772 28.0848 5.72658C28.0848 4.34601 26.2293 3.44151 25.3618 4.39363ZM18.8558 10.63C19.0004 10.63 19.3618 10.987 19.6269 11.4393C20.0124 12.0581 20.1329 12.6294 20.1329 13.9385C20.1329 14.8669 20.0365 15.8191 19.8919 16.057C19.7714 16.2712 19.41 17.0567 19.0726 17.7709C17.5064 21.1747 12.9761 24.7213 10.0605 24.7689C9.19302 24.7927 8.9039 24.6737 8.4219 24.1262C8.10865 23.7692 7.84365 23.3883 7.84365 23.2932C7.84365 23.1979 8.51827 23.1265 9.36165 23.1265C11.2894 23.1027 12.8075 22.4124 14.4461 20.77C16.8075 18.4611 17.7233 16.5807 18.0846 13.4864C18.2051 12.5342 18.1329 11.9153 17.8436 11.2488L17.4581 10.3205L18.0124 10.4872C18.3256 10.5586 18.687 10.63 18.8558 10.63ZM37.8198 15.4858C39.2414 16.8902 39.3619 17.6042 38.5909 20.0559C37.8198 22.4362 36.0606 24.9831 34.157 26.4827C32.1811 28.03 29.4824 29.2676 27.8438 29.3629L26.5185 29.4581L27.3619 29.0058C33.1209 25.9591 37.4343 19.818 35.8679 16.8188C35.627 16.3665 35.1933 15.8666 34.904 15.7477C34.3499 15.4619 34.4221 15.1526 35.1933 14.7241C36.0848 14.2243 36.7113 14.4147 37.8198 15.4858ZM5.07253 18.5325C4.44603 20.6034 4.3014 22.7695 4.73515 24.2929C5.12078 25.6259 6.73515 27.2444 8.25327 27.7442L9.48215 28.1489L8.7834 28.4584C8.3979 28.625 7.60265 29.22 7.0244 29.7676L5.96415 30.791L5.24115 30.3388C4.83153 30.1008 4.32552 29.6248 4.13277 29.3153C3.57853 28.4584 2.22913 28.4821 1.65082 29.339C1.26527 29.9341 1.26526 30.0055 1.7231 30.8387C1.96406 31.3147 2.85564 32.1717 3.6749 32.7667C4.97615 33.6949 5.1689 33.933 5.1689 34.6471C5.19303 35.5278 5.33752 35.5278 2.66286 34.7899C1.86768 34.5757 -0.469684 33.9807 -2.5179 33.457C-6.83118 32.3621 -14.6626 29.8151 -15.7469 29.1725C-16.5421 28.6964 -16.9035 27.5538 -16.6144 26.4113C-16.3734 25.4115 -13.9638 23.2693 -12.1565 22.46C-10.4457 21.6745 -7.86733 20.6986 -6.73479 20.3892C-6.32514 20.2701 -5.40948 20.0083 -4.68658 19.7941C-3.38537 19.3894 3.5544 18.1041 4.68703 18.0327C5.1689 18.0088 5.21715 18.0804 5.07253 18.5325ZM24.6389 18.6278C25.145 18.7706 25.145 18.7944 24.2534 20.0083C20.9521 24.4118 20.3739 29.0058 22.8316 31.2671C24.8799 33.1714 28.3498 33.2189 32.157 31.4575C36.0606 29.6248 38.6631 27.2205 40.5185 23.7216C40.88 23.0075 41.2174 22.3648 41.2655 22.3172C41.3379 22.1982 43.362 22.6981 44.4704 23.1265C44.9282 23.2932 46.7355 23.9834 48.4464 24.6499C50.1812 25.3164 51.6753 25.8638 51.7475 25.8638C52.2054 25.8638 59.579 29.4104 60.6391 30.1483C62.2536 31.2671 64.0367 32.8619 64.3741 33.5046C64.8561 34.4567 64.8079 35.6706 64.2296 36.2895C62.9765 37.5987 59.5307 38.6698 54.3981 39.3125C49.8921 39.86 36.5668 39.8123 29.651 39.1935C23.651 38.6698 20.7835 38.3603 19.0485 38.0271C18.3979 37.9082 17.3376 37.7415 16.7111 37.6463C15.5063 37.4796 15.0244 37.1464 15.5786 36.7894C15.7714 36.6704 17.169 36.5752 18.7111 36.5752C20.2534 36.5752 21.8438 36.4562 22.2775 36.3134C23.5305 35.8848 23.916 34.5995 23.0245 33.7188C22.5908 33.2903 22.2293 33.2428 19.7955 33.2428H17.0726L17.1931 32.0764C17.3376 30.553 17.1449 29.8865 16.3738 28.9583C15.7714 28.2679 15.6509 28.2203 14.181 28.2679C12.0605 28.3393 11.7955 27.9823 13.4581 27.2205C15.5786 26.2685 17.5064 24.9355 18.8799 23.5074C20.2293 22.103 21.675 20.1036 22.0606 19.0801C22.2534 18.5801 22.4461 18.485 23.1931 18.485C23.6991 18.485 24.3498 18.5564 24.6389 18.6278ZM-16.3734 20.0083C-15.6264 20.3178 -15.53 20.4606 -15.7469 20.7224C-16.012 21.008 -16.1806 21.008 -17.0481 20.6034C-18.9999 19.7464 -22.1325 20.3178 -23.5783 21.7935C-25.2168 23.4835 -24.3976 26.0066 -21.7951 27.2205C-21.024 27.5777 -20.3734 27.9586 -20.3734 28.03C-20.3493 28.2918 -22.6145 28.506 -23.506 28.3393C-25.482 27.9347 -26.1807 26.7921 -25.5542 24.9117C-24.1325 20.651 -20.0843 18.485 -16.3734 20.0083ZM-19.0481 23.9834C-19.3614 24.6023 -19.506 24.6975 -20.0602 24.5547C-20.8795 24.3643 -21.3855 23.9358 -21.1445 23.6978C-20.9036 23.4597 -19.0963 23.0551 -18.8554 23.1741C-18.7349 23.2218 -18.8313 23.6025 -19.0481 23.9834ZM10.8556 31.3147C10.928 31.5527 11.3376 31.9098 11.7473 32.0764C12.3979 32.3382 12.5906 32.3145 13.193 31.9812L13.8919 31.5766L13.8195 32.2431C13.7473 32.7905 13.6268 32.9095 12.9039 32.9571C12.181 33.0286 9.43402 32.4096 9.0484 32.1003C8.9039 32.005 10.2774 30.8624 10.5424 30.8624C10.6388 30.8624 10.7593 31.0766 10.8556 31.3147ZM69.1452 31.8384C70.6875 32.2668 71.6514 33.0286 72.1815 34.2425C72.832 35.7659 72.7839 36.3371 71.8922 37.6701C70.9525 39.0744 69.0971 40.0742 67.1211 40.3122L65.7959 40.455L66.3501 39.86C66.6634 39.5267 67.5307 39.0744 68.3501 38.8365C70.3019 38.2414 71.2176 37.2417 71.2176 35.6944C71.2176 35.0279 71.0249 34.3139 70.7356 33.814C70.2055 33.0047 68.567 32.0526 67.6512 32.0526C67.3621 32.0526 67.1211 31.9336 67.1211 31.8145C67.1211 31.5052 67.9645 31.5052 69.1452 31.8384ZM-13.0722 33.5046C-5.91551 36.1229 5.62677 39.0982 12.6629 40.1694C13.6509 40.3122 15.0726 40.5741 15.7955 40.7406C16.5184 40.9073 18.0365 41.169 19.169 41.312C20.3015 41.4548 22.4703 41.7166 23.9883 41.9071C29.1691 42.5735 33.9643 42.7877 43.2655 42.7877C50.2776 42.7877 53.2656 42.7163 55.5547 42.4306C57.1934 42.2164 58.591 42.0499 58.6391 42.0499C59.0247 42.0499 58.109 42.6449 56.4464 43.478C55.362 44.0493 54.3017 44.6444 54.0849 44.8109C53.8921 45.0014 53.603 45.1442 53.4825 45.1442C53.362 45.1442 52.8801 45.406 52.4222 45.7155C51.9644 46.0249 50.2295 46.9771 48.5667 47.8339C42.2776 51.0949 42.4221 51.0235 39.2896 51.4281C35.3619 51.9518 22.8799 51.9518 18.8075 51.452C17.2171 51.2616 14.8798 50.9759 13.6268 50.8331C9.12077 50.3333 1.60261 48.2385 -2.03596 46.5009C-3.9396 45.5965 -7.21672 42.6687 -11.0963 38.3603C-13.53 35.6469 -15.6505 32.7667 -15.1927 32.7667C-15.1204 32.7667 -14.1806 33.1 -13.0722 33.5046ZM10.2051 35.742C11.0244 35.9801 11.6268 36.242 11.5545 36.3609C11.3858 36.6466 9.9159 36.6227 9.21715 36.3134C8.59065 36.0276 7.7714 34.9804 8.37377 35.1946C8.56652 35.266 9.38577 35.5278 10.2051 35.742Z" fill="black" stroke="white"/>
</g>
</g>
<defs>
<clipPath id="clip0_833_5">
<rect width="48" height="48" fill="white"/>
</clipPath>
</defs>
</svg>
