<svg width="48" height="48" viewBox="0 0 48 48" fill="none" xmlns="http://www.w3.org/2000/svg">
<g clip-path="url(#clip0_695_238)">
<rect width="48" height="48" rx="24" fill="white"/>
<path d="M27.4894 5.31645C27.2967 5.5078 27.1617 5.79484 27.1617 5.94792C27.1617 6.10101 26.6798 6.73248 26.0629 7.32569C24.9834 8.43556 24.2701 8.95222 24.2701 8.66519C24.2701 8.22507 23.0942 7.84235 21.7641 7.84235C20.3183 7.84235 19.9135 7.95717 17.7352 9.0479C16.5592 9.64111 14.1303 11.7652 13.1857 13.0473C12.8387 13.5448 12.646 13.6022 10.8725 13.7744C6.11097 14.2337 2.35191 15.0756 -1.07945 16.4534C-2.27463 16.9509 -2.42885 17.0083 -2.69873 17.0657C-2.85295 17.104 -3.25777 16.8744 -3.62404 16.5299C-4.70357 15.5158 -6.22647 15.0565 -8.34697 15.1522C-9.86987 15.2096 -10.3133 15.3053 -11.2771 15.7837C-13.9374 17.104 -15.8265 19.783 -15.9808 22.462C-16.0772 23.9163 -15.8265 24.6626 -14.882 25.6959C-13.841 26.8441 -13.0699 27.0737 -10.4867 27.0737C-8.65541 27.0546 -8.11564 27.112 -8.11564 27.3033C-8.11564 27.6478 -6.26503 31.1305 -5.64815 31.9533C-4.62646 33.3119 -2.85295 35.2064 -2.60235 35.2064C-2.44813 35.2064 -2.33247 35.2829 -2.33247 35.3786C-2.33247 35.6656 2.46757 39.9711 3.16155 40.2964C3.52782 40.4687 3.91336 40.7174 4.0483 40.8705C4.16397 41.0236 4.35674 41.1384 4.4724 41.1384C4.56879 41.1384 4.93506 41.3489 5.26277 41.5785C5.86037 42.0378 6.74712 42.4014 9.8122 43.4347C13.205 44.5828 15.1327 44.9464 21.9569 45.7501C25.1183 46.1328 36.5305 46.0563 39.3064 45.6544C41.4655 45.3483 41.6197 45.2909 45.3787 43.4347C47.5185 42.3822 49.5619 41.3298 49.9282 41.1001C50.7185 40.5835 51.3547 40.2199 53.2439 39.2248C54.015 38.823 55.1523 38.0958 55.7885 37.6366L56.9451 36.7946H59.2584C61.8993 36.8138 63.268 36.4884 64.8488 35.4934C66.4873 34.4409 67.3548 33.2545 67.856 31.3409C68.0681 30.5755 68.0488 30.2885 67.7789 29.4082C67.1235 27.3607 65.8319 25.9638 63.8271 25.1984C62.8439 24.7966 60.2415 24.7583 59.5475 25.1219C59.1041 25.3515 58.9885 25.3132 58.1981 24.6626C56.8294 23.5527 52.1065 21.1608 48.5595 19.8021C48.0776 19.6108 47.5185 19.4003 47.3065 19.3238C45.7836 18.7114 44.3185 18.1756 44.145 18.1756C44.0293 18.1756 43.9329 18.0799 43.9329 17.9843C43.9329 17.8694 44.1064 17.7929 44.2992 17.7929C44.5113 17.7929 45.1474 17.6015 45.745 17.3911C47.6727 16.6448 48.5595 15.0948 47.5571 14.1571C46.9595 13.6213 46.5547 13.6787 45.7065 14.425C44.7233 15.3244 43.0076 15.8219 41.9667 15.5158L41.2149 15.2861L42.3329 14.559C43.586 13.7553 44.2414 12.9898 45.0125 11.4399C45.6101 10.2152 45.5522 9.56456 44.7811 9.06704C44.0486 8.58864 43.5088 8.93309 42.6799 10.4639C41.9281 11.8608 40.8486 12.9133 40.2124 12.875C40.0004 12.8559 39.5956 12.6071 39.3064 12.3392C38.651 11.7078 36.3184 10.7318 35.4895 10.7127C34.7377 10.7127 33.7546 11.2294 33.6196 11.6886C33.5618 11.88 33.1377 12.2053 32.6943 12.4158C32.2509 12.6263 31.4027 13.2003 30.8244 13.6787C29.9377 14.4059 29.6678 14.5207 29.2051 14.425C28.8967 14.3676 28.0292 14.2528 27.2774 14.1763C26.1979 14.0806 25.9087 13.9849 25.8509 13.717C25.793 13.4491 25.928 13.3917 26.4678 13.3917C27.528 13.3917 29.5328 12.3966 30.7087 11.2868C32.1931 9.88987 32.3666 8.83741 31.21 8.16766C30.4389 7.7084 29.9377 7.89976 29.475 8.79914C28.8967 9.94728 26.9497 11.0954 25.6388 11.0954C25.1955 11.0954 25.2533 11.0189 26.1015 10.4448C27.9714 9.20099 29.6678 7.24915 29.6678 6.38804C29.6678 5.27817 28.1834 4.55102 27.4894 5.31645ZM22.2846 10.33C22.4003 10.33 22.6894 10.617 22.9015 10.9806C23.2099 11.4781 23.3063 11.9374 23.3063 12.9898C23.3063 13.7361 23.2292 14.5016 23.1135 14.6929C23.0171 14.8651 22.728 15.4966 22.4581 16.0707C21.2051 18.8071 17.5809 21.6583 15.2484 21.6966C14.5544 21.7157 14.3231 21.62 13.9375 21.1799C13.6869 20.8929 13.4749 20.5867 13.4749 20.5102C13.4749 20.4336 14.0146 20.3762 14.6893 20.3762C16.2315 20.3571 17.446 19.8021 18.7569 18.4818C20.646 16.6256 21.3786 15.1139 21.6677 12.6263C21.7641 11.8608 21.7063 11.3633 21.4749 10.8275L21.1665 10.0812L21.6099 10.2152C21.8605 10.2726 22.1496 10.33 22.2846 10.33ZM37.4558 14.2337C38.5931 15.3627 38.6895 15.9367 38.0727 17.9077C37.4558 19.8213 36.0485 21.8688 34.5256 23.0743C32.9449 24.3182 30.7859 25.3132 29.475 25.3898L28.4148 25.4663L29.0895 25.1027C33.6967 22.6534 37.1474 17.7164 35.8943 15.3053C35.7016 14.9417 35.3546 14.5398 35.1232 14.4442C34.6799 14.2145 34.7377 13.9658 35.3546 13.6213C36.0678 13.2195 36.569 13.3726 37.4558 14.2337ZM11.258 16.683C10.7568 18.3478 10.6411 20.0892 10.9881 21.3139C11.2966 22.3855 12.5881 23.6867 13.8026 24.0885L14.7857 24.4138L14.2267 24.6626C13.9183 24.7966 13.2821 25.2749 12.8195 25.7151L11.9713 26.5379L11.3929 26.1743C11.0652 25.983 10.6604 25.6003 10.5062 25.3515C10.0628 24.6626 8.98328 24.6817 8.52063 25.3706C8.21219 25.849 8.21219 25.9064 8.57846 26.5762C8.77123 26.9589 9.48449 27.6478 10.1399 28.1262C11.1809 28.8724 11.3351 29.0638 11.3351 29.6379C11.3544 30.3459 11.47 30.3459 9.33027 29.7527C8.69412 29.5805 6.82423 29.1021 5.18566 28.6811C1.73503 27.8009 -4.53007 25.7533 -5.39755 25.2367C-6.0337 24.854 -6.32286 23.9354 -6.09153 23.0169C-5.89876 22.2132 -3.97103 20.491 -2.52524 19.8404C-1.15655 19.2089 0.906112 18.4244 1.81214 18.1756C2.13986 18.0799 2.87239 17.8694 3.45071 17.6972C4.49168 17.3719 10.0435 16.3386 10.9496 16.2812C11.3351 16.262 11.3737 16.3195 11.258 16.683ZM26.9111 16.7596C27.316 16.8744 27.316 16.8935 26.6027 17.8694C23.9617 21.4095 23.4991 25.1027 25.4653 26.9206C27.1039 28.4515 29.8798 28.4897 32.9256 27.0737C36.0485 25.6003 38.1305 23.6675 39.6148 20.8546C39.904 20.2805 40.1739 19.7639 40.2124 19.7256C40.2703 19.6299 41.8896 20.0318 42.7763 20.3762C43.1426 20.5102 44.5884 21.0651 45.9571 21.6009C47.345 22.1367 48.5402 22.5768 48.598 22.5768C48.9643 22.5768 54.8632 25.428 55.7113 26.0212C57.0029 26.9206 58.4294 28.2027 58.6993 28.7194C59.0849 29.4848 59.0463 30.4607 58.5837 30.9582C57.5812 32.0107 54.8246 32.8718 50.7185 33.3885C47.1137 33.8286 36.4534 33.7903 30.9208 33.2928C26.1208 32.8718 23.8268 32.623 22.4388 32.3551C21.9183 32.2595 21.0701 32.1255 20.5689 32.049C19.605 31.915 19.2195 31.6471 19.6629 31.3601C19.8171 31.2644 20.9352 31.1879 22.1689 31.1879C23.4027 31.1879 24.675 31.0922 25.022 30.9774C26.0244 30.6329 26.3328 29.5996 25.6196 28.8916C25.2726 28.5471 24.9834 28.5089 23.0364 28.5089H20.8581L20.9545 27.5712C21.0701 26.3465 20.9159 25.8107 20.299 25.0645C19.8171 24.5095 19.7207 24.4712 18.5448 24.5095C16.8484 24.5669 16.6364 24.2799 17.9665 23.6675C19.6629 22.9021 21.2051 21.8305 22.3039 20.6824C23.3834 19.5534 24.54 17.946 24.8485 17.1232C25.0027 16.7213 25.1569 16.6448 25.7545 16.6448C26.1593 16.6448 26.6798 16.7022 26.9111 16.7596ZM-5.89876 17.8694C-5.30116 18.1182 -5.22406 18.233 -5.39755 18.4435C-5.6096 18.6731 -5.74454 18.6731 -6.43852 18.3478C-7.99998 17.6589 -10.506 18.1182 -11.6627 19.3046C-12.9735 20.6632 -12.3181 22.6916 -10.2361 23.6675C-9.61927 23.9546 -9.09878 24.2608 -9.09878 24.3182C-9.07951 24.5287 -10.8916 24.7009 -11.6048 24.5669C-13.1856 24.2416 -13.7446 23.3231 -13.2434 21.8114C-12.106 18.3861 -8.86746 16.6448 -5.89876 17.8694ZM-8.03853 21.0651C-8.28914 21.5626 -8.4048 21.6392 -8.84818 21.5244C-9.50361 21.3713 -9.90843 21.0268 -9.71566 20.8355C-9.52288 20.6441 -8.07709 20.3188 -7.88432 20.4145C-7.78793 20.4528 -7.86504 20.7589 -8.03853 21.0651ZM15.8845 26.9589C15.9424 27.1502 16.2701 27.4373 16.5978 27.5712C17.1183 27.7817 17.2725 27.7626 17.7544 27.4947L18.3135 27.1694L18.2556 27.7052C18.1978 28.1453 18.1014 28.241 17.5231 28.2792C16.9448 28.3367 14.7472 27.8391 14.4387 27.5904C14.3231 27.5138 15.4219 26.5953 15.6339 26.5953C15.711 26.5953 15.8074 26.7675 15.8845 26.9589ZM62.5162 27.3799C63.75 27.7243 64.5211 28.3367 64.9452 29.3126C65.4656 30.5373 65.4271 30.9965 64.7138 32.0681C63.962 33.1971 62.4777 34.0008 60.8969 34.1922L59.8367 34.307L60.2801 33.8286C60.5307 33.5607 61.2246 33.1971 61.8801 33.0058C63.4415 32.5274 64.1741 31.7237 64.1741 30.4798C64.1741 29.944 64.0199 29.37 63.7885 28.9681C63.3644 28.3175 62.0536 27.5521 61.321 27.5521C61.0897 27.5521 60.8969 27.4564 60.8969 27.3607C60.8969 27.112 61.5716 27.112 62.5162 27.3799ZM-3.25777 28.7194C2.46757 30.8243 11.7014 33.2162 17.3303 34.0774C18.1207 34.1922 19.2581 34.4027 19.8364 34.5366C20.4147 34.6706 21.6292 34.881 22.5352 34.9959C23.4412 35.1107 25.1762 35.3212 26.3906 35.4743C30.5353 36.0101 34.3714 36.1823 41.8124 36.1823C47.4221 36.1823 49.8125 36.1249 51.6438 35.8952C52.9547 35.723 54.0728 35.5891 54.1113 35.5891C54.4198 35.5891 53.6872 36.0675 52.3571 36.7372C51.4896 37.1965 50.6414 37.6749 50.4679 37.8088C50.3137 37.9619 50.0824 38.0767 49.986 38.0767C49.8896 38.0767 49.5041 38.2872 49.1378 38.536C48.7715 38.7847 47.3836 39.5502 46.0534 40.239C41.0221 42.8606 41.1377 42.8032 38.6317 43.1285C35.4895 43.5495 25.5039 43.5495 22.246 43.1477C20.9737 42.9946 19.1038 42.7649 18.1014 42.6501C14.4966 42.2483 8.48207 40.5643 5.57121 39.1674C4.0483 38.4403 1.4266 36.0866 -1.67704 32.623C-3.62404 30.4416 -5.32044 28.1262 -4.95417 28.1262C-4.89634 28.1262 -4.14453 28.3941 -3.25777 28.7194ZM15.3641 30.5181C16.0195 30.7095 16.5014 30.92 16.4436 31.0156C16.3086 31.2453 15.1327 31.2261 14.5737 30.9774C14.0725 30.7477 13.4171 29.9058 13.899 30.078C14.0532 30.1354 14.7086 30.3459 15.3641 30.5181Z" fill="black" stroke="white"/>
</g>
<defs>
<clipPath id="clip0_695_238">
<rect width="48" height="48" rx="24" fill="white"/>
</clipPath>
</defs>
</svg>
