<svg width="99" height="99" viewBox="0 0 99 99" fill="none" xmlns="http://www.w3.org/2000/svg">
<rect x="0.25" y="0.25" width="98.5" height="98.5" rx="49.25" fill="white"/>
<rect x="0.25" y="0.25" width="98.5" height="98.5" rx="49.25" stroke="#E0E0E0" stroke-width="0.5"/>
<path d="M11.7661 44.743C13.1432 44.8585 14.335 43.8364 14.428 42.4601C14.521 41.0838 13.48 39.8745 12.1028 39.759L11.9344 42.251L11.7661 44.743ZM7.34799 42.8236L6.50269 40.4567L7.34799 42.8236ZM4.48252 46.1815L6.84228 47.0436V47.0436L4.48252 46.1815ZM5.36694 50.5991L3.2278 51.8572L3.40792 52.1584L3.66271 52.4002L5.36694 50.5991ZM9.38128 53.0485L8.73728 55.454L8.82243 55.4781L8.90896 55.4962L9.38128 53.0485ZM12.2249 55.9823C13.5974 56.1513 14.8287 55.177 14.9752 53.8062C15.1217 52.4355 14.1278 51.1873 12.7553 51.0184L12.4901 53.5003L12.2249 55.9823ZM11.9344 42.251L12.1028 39.759C10.919 39.6597 8.69877 39.7029 6.50269 40.4567L7.34799 42.8236L8.1933 45.1904C9.5718 44.7173 11.0658 44.6842 11.7661 44.743L11.9344 42.251ZM7.34799 42.8236L6.50269 40.4567C3.64479 41.4377 2.57915 44.018 2.12276 45.3194L4.48252 46.1815L6.84228 47.0436C7.23514 45.9234 7.64769 45.3777 8.1933 45.1904L7.34799 42.8236ZM4.48252 46.1815L2.12276 45.3194C1.66342 46.6291 1.81323 47.9907 2.06064 49.0082C2.31848 50.0685 2.76026 51.0753 3.2278 51.8572L5.36694 50.5991L7.50608 49.341C7.27819 48.9599 7.04383 48.425 6.91636 47.9008C6.85421 47.6452 6.82721 47.4317 6.8244 47.2686C6.82155 47.1031 6.84428 47.0379 6.84228 47.0436L4.48252 46.1815ZM5.36694 50.5991L3.66271 52.4002C5.18885 53.8485 6.98526 54.958 8.73728 55.454L9.38128 53.0485L10.0253 50.643C9.23486 50.4193 8.14016 49.8125 7.07117 48.798L5.36694 50.5991ZM9.38128 53.0485L8.90896 55.4962C9.8425 55.6912 11.0991 55.8438 12.2249 55.9823L12.4901 53.5003L12.7553 51.0184C11.5443 50.8693 10.5329 50.7428 9.8536 50.6009L9.38128 53.0485Z" fill="#2C7B52"/>
<path d="M85.6391 40.5555L85.7821 43.0541L85.6975 43.0576L85.6129 43.0553L85.6391 40.5555ZM89.4783 41.3541L90.5127 39.0947L89.4783 41.3541ZM91.8189 44.8516L89.4072 45.4683L91.8189 44.8516ZM90.9912 49.2233L93.0102 50.73L90.9912 49.2233ZM87.574 51.4734L88.276 53.8846L88.1772 53.9119L88.0763 53.931L87.574 51.4734ZM84.9555 51.7716L85.2135 54.2629L85.0717 54.2753L84.9292 54.2714L84.9555 51.7716ZM84.3708 43.022C82.9906 42.985 81.8835 41.8357 81.898 40.4551C81.9125 39.0745 83.0431 37.9853 84.4233 38.0223L84.3971 40.5221L84.3708 43.022ZM83.6287 54.2366C82.2485 54.1995 81.1413 53.0503 81.1558 51.6697C81.1703 50.289 82.301 49.1998 83.6812 49.2368L83.6549 51.7367L83.6287 54.2366ZM85.6391 40.5555L85.4962 38.0568C86.5825 38.0122 88.5663 38.1776 90.5127 39.0947L89.4783 41.3541L88.4439 43.6134C87.4132 43.1278 86.2804 43.0337 85.7821 43.0541L85.6391 40.5555ZM89.4783 41.3541L90.5127 39.0947C93.0891 40.3087 93.9066 43.0373 94.2306 44.235L91.8189 44.8516L89.4072 45.4683C89.2608 44.9269 89.0978 44.4664 88.8941 44.1122C88.6988 43.7727 88.5404 43.6589 88.4439 43.6134L89.4783 41.3541ZM91.8189 44.8516L94.2306 44.235C94.5524 45.4242 94.4679 46.6992 94.2595 47.7215C94.0515 48.7419 93.6468 49.8674 93.0102 50.73L90.9912 49.2233L88.9722 47.7166C89.0494 47.612 89.242 47.2299 89.3612 46.6454C89.48 46.0627 89.4525 45.6355 89.4072 45.4683L91.8189 44.8516ZM90.9912 49.2233L93.0102 50.73C91.409 52.8994 89.5869 53.5221 88.276 53.8846L87.574 51.4734L86.8719 49.0622C87.3575 48.9279 87.6843 48.8151 87.9863 48.641C88.2666 48.4794 88.6009 48.2197 88.9722 47.7166L90.9912 49.2233ZM87.574 51.4734L88.0763 53.931C87.2464 54.0878 86.1471 54.1811 85.2135 54.2629L84.9555 51.7716L84.6975 49.2803C85.731 49.1898 86.541 49.1161 87.0716 49.0158L87.574 51.4734ZM85.6391 40.5555L85.6129 43.0553L84.3708 43.022L84.3971 40.5221L84.4233 38.0223L85.6654 38.0556L85.6391 40.5555ZM84.9555 51.7716L84.9292 54.2714L83.6287 54.2366L83.6549 51.7367L83.6812 49.2368L84.9817 49.2717L84.9555 51.7716Z" fill="#2C7B52"/>
<path d="M76.6683 33.5191C53.2177 23.5463 28.5204 29.9672 19.1031 34.4242C6.73368 41.1019 15.249 48.8281 21.0528 51.8565C39.9413 60.1185 69.2247 53.9745 77.3292 49.8073C89.7188 41.9326 82.0509 35.6674 76.6683 33.5191Z" fill="white" stroke="#2C7B52" stroke-width="4"/>
<path d="M14.7151 62.3228L12.9406 43.5477C13.525 45.5629 16.0455 49.5824 22.7192 52.502C33.6737 56.7303 61.7265 56.8161 74.0039 51.002C77.0039 50.002 82.8751 47.2707 84.0024 41.9006L81.417 60.7912C80.1664 67.3972 76.9062 69.2359 73.4561 71.0714C52.0188 80.7089 30.6993 75.7817 22.7192 72.1135C17.2525 69.6006 15.2404 64.9824 14.7151 62.3228Z" fill="#2C7B52" stroke="#2C7B52" stroke-width="4"/>
<ellipse cx="41.5982" cy="54.9219" rx="6.48098" ry="12.4219" fill="white" stroke="black"/>
<ellipse cx="55.9029" cy="54.9219" rx="6.48098" ry="12.4219" fill="white" stroke="black"/>
<ellipse cx="44.2436" cy="54.8624" rx="3.76311" ry="8.15341" fill="black"/>
<ellipse cx="58.5483" cy="54.8624" rx="3.76311" ry="8.15341" fill="black"/>
</svg>
