<svg width="50" height="50" viewBox="0 0 50 50" fill="none" xmlns="http://www.w3.org/2000/svg">
<g clip-path="url(#clip0_833_5)">
<mask id="mask0_833_5" style="mask-type:luminance" maskUnits="userSpaceOnUse" x="1" y="1" width="48" height="48">
<path d="M49 25C49 11.7452 38.2548 1 25 1C11.7452 1 1 11.7452 1 25C1 38.2548 11.7452 49 25 49C38.2548 49 49 38.2548 49 25Z" fill="white"/>
</mask>
<g mask="url(#mask0_833_5)">
<path d="M49 25C49 11.7452 38.2548 1 25 1C11.7452 1 1 11.7452 1 25C1 38.2548 11.7452 49 25 49C38.2548 49 49 38.2548 49 25Z" fill="white"/>
<path d="M26.3618 5.39363C26.1209 5.63165 25.9521 5.9887 25.9521 6.17911C25.9521 6.36954 25.3498 7.15503 24.5786 7.89293C23.2293 9.2735 22.3376 9.91617 22.3376 9.55913C22.3376 9.01167 20.8678 8.5356 19.2051 8.5356C17.3979 8.5356 16.8919 8.67843 14.169 10.0352C12.699 10.7731 9.6629 13.4152 8.48215 15.0101C8.0484 15.6289 7.80752 15.7003 5.59065 15.9145C-0.361259 16.4858 -5.06008 17.5331 -9.34928 19.2469C-10.8433 19.8658 -11.036 19.9372 -11.3734 20.0086C-11.5662 20.0562 -12.0722 19.7706 -12.53 19.3421C-13.8794 18.0806 -15.783 17.5093 -18.4337 17.6283C-20.3373 17.6997 -20.8916 17.8188 -22.0963 18.4139C-25.4217 20.0562 -27.7831 23.3886 -27.976 26.721C-28.0965 28.53 -27.7831 29.4584 -26.6025 30.7437C-25.3012 32.1719 -24.3373 32.4575 -21.1083 32.4575C-18.8192 32.4338 -18.1445 32.5052 -18.1445 32.7431C-18.1445 33.1717 -15.8312 37.5038 -15.0602 38.5273C-13.783 40.2172 -11.5662 42.5738 -11.2529 42.5738C-11.0601 42.5738 -10.9156 42.669 -10.9156 42.788C-10.9156 43.145 -4.9155 48.5006 -4.04803 48.9053C-3.59019 49.1196 -3.10827 49.429 -2.93959 49.6194C-2.79501 49.8098 -2.55404 49.9526 -2.40947 49.9526C-2.28898 49.9526 -1.83115 50.2145 -1.42151 50.5001C-0.674508 51.0714 0.433927 51.5237 4.26528 52.809C8.50627 54.2371 10.9159 54.6894 19.4461 55.6892C23.3979 56.1652 37.6631 56.07 41.133 55.5701C43.8319 55.1894 44.0246 55.118 48.7234 52.809C51.3981 51.4998 53.9524 50.1907 54.4103 49.905C55.3981 49.2624 56.1934 48.8101 58.5549 47.5723C59.5187 47.0725 60.9404 46.168 61.7356 45.5968L63.1814 44.5494H66.073C69.3741 44.5733 71.085 44.1685 73.061 42.9308C75.1091 41.6216 76.1935 40.1458 76.82 37.7655C77.0851 36.8134 77.061 36.4564 76.7236 35.3614C75.9044 32.8145 74.2899 31.0769 71.7839 30.1248C70.5549 29.625 67.3019 29.5774 66.4344 30.0297C65.8801 30.3153 65.7356 30.2676 64.7476 29.4584C63.0367 28.0777 57.1331 25.1025 52.6994 23.4124C52.097 23.1744 51.3981 22.9126 51.1331 22.8174C49.2295 22.0556 47.3981 21.3892 47.1813 21.3892C47.0366 21.3892 46.9161 21.2701 46.9161 21.1512C46.9161 21.0083 47.133 20.9131 47.374 20.9131C47.6391 20.9131 48.4342 20.675 49.1812 20.4133C51.5909 19.485 52.6994 17.5569 51.4464 16.3905C50.6994 15.7241 50.1934 15.7955 49.1331 16.7238C47.9041 17.8425 45.7595 18.4614 44.4584 18.0806L43.5186 17.7949L44.9161 16.8905C46.4825 15.8907 47.3018 14.9385 48.2656 13.0106C49.0126 11.4872 48.9403 10.6779 47.9764 10.059C47.0608 9.46391 46.386 9.89237 45.3499 11.7966C44.4101 13.5342 43.0608 14.8434 42.2655 14.7957C42.0005 14.772 41.4945 14.4625 41.133 14.1292C40.3138 13.3438 37.398 12.1298 36.3619 12.106C35.4221 12.106 34.1933 12.7488 34.0245 13.32C33.9523 13.558 33.4221 13.9627 32.8679 14.2245C32.3136 14.4864 31.2534 15.2004 30.5305 15.7955C29.4221 16.7 29.0848 16.8428 28.5064 16.7238C28.1209 16.6524 27.0365 16.5096 26.0968 16.4144C24.7474 16.2954 24.3859 16.1763 24.3136 15.8431C24.2413 15.5099 24.41 15.4385 25.0848 15.4385C26.41 15.4385 28.916 14.2006 30.3859 12.8202C32.2414 11.0825 32.4583 9.77336 31.0125 8.94025C30.0486 8.36898 29.4221 8.60701 28.8438 9.72575C28.1209 11.1539 25.6871 12.5821 24.0485 12.5821C23.4944 12.5821 23.5666 12.4869 24.6269 11.7728C26.9643 10.2256 29.0848 7.79772 29.0848 6.72658C29.0848 5.34601 27.2293 4.44151 26.3618 5.39363ZM19.8558 11.63C20.0004 11.63 20.3618 11.987 20.6269 12.4393C21.0124 13.0581 21.1329 13.6294 21.1329 14.9385C21.1329 15.8669 21.0365 16.8191 20.8919 17.057C20.7714 17.2712 20.41 18.0567 20.0726 18.7709C18.5064 22.1747 13.9761 25.7213 11.0605 25.7689C10.193 25.7927 9.9039 25.6737 9.4219 25.1262C9.10865 24.7692 8.84365 24.3883 8.84365 24.2932C8.84365 24.1979 9.51827 24.1265 10.3616 24.1265C12.2894 24.1027 13.8075 23.4124 15.4461 21.77C17.8075 19.4611 18.7233 17.5807 19.0846 14.4864C19.2051 13.5342 19.1329 12.9153 18.8436 12.2488L18.4581 11.3205L19.0124 11.4872C19.3256 11.5586 19.687 11.63 19.8558 11.63ZM38.8198 16.4858C40.2414 17.8902 40.3619 18.6042 39.5909 21.0559C38.8198 23.4362 37.0606 25.9831 35.157 27.4827C33.1811 29.03 30.4824 30.2676 28.8438 30.3629L27.5185 30.4581L28.3619 30.0058C34.1209 26.9591 38.4343 20.818 36.8679 17.8188C36.627 17.3665 36.1933 16.8666 35.904 16.7477C35.3499 16.4619 35.4221 16.1526 36.1933 15.7241C37.0848 15.2243 37.7113 15.4147 38.8198 16.4858ZM6.07253 19.5325C5.44603 21.6034 5.3014 23.7695 5.73515 25.2929C6.12078 26.6259 7.73515 28.2444 9.25327 28.7442L10.4821 29.1489L9.7834 29.4584C9.3979 29.625 8.60265 30.22 8.0244 30.7676L6.96415 31.791L6.24115 31.3388C5.83153 31.1008 5.32552 30.6248 5.13277 30.3153C4.57853 29.4584 3.22913 29.4821 2.65082 30.339C2.26527 30.9341 2.26526 31.0055 2.7231 31.8387C2.96406 32.3147 3.85564 33.1717 4.6749 33.7667C5.97615 34.6949 6.1689 34.933 6.1689 35.6471C6.19303 36.5278 6.33752 36.5278 3.66286 35.7899C2.86768 35.5757 0.530316 34.9807 -1.5179 34.457C-5.83118 33.3621 -13.6626 30.8151 -14.7469 30.1725C-15.5421 29.6964 -15.9035 28.5538 -15.6144 27.4113C-15.3734 26.4115 -12.9638 24.2693 -11.1565 23.46C-9.44565 22.6745 -6.86733 21.6986 -5.73479 21.3892C-5.32514 21.2701 -4.40948 21.0083 -3.68658 20.7941C-2.38537 20.3894 4.5544 19.1041 5.68703 19.0327C6.1689 19.0088 6.21715 19.0804 6.07253 19.5325ZM25.6389 19.6278C26.145 19.7706 26.145 19.7944 25.2534 21.0083C21.9521 25.4118 21.3739 30.0058 23.8316 32.2671C25.8799 34.1714 29.3498 34.2189 33.157 32.4575C37.0606 30.6248 39.6631 28.2205 41.5185 24.7216C41.88 24.0075 42.2174 23.3648 42.2655 23.3172C42.3379 23.1982 44.362 23.6981 45.4704 24.1265C45.9282 24.2932 47.7355 24.9834 49.4464 25.6499C51.1812 26.3164 52.6753 26.8638 52.7475 26.8638C53.2054 26.8638 60.579 30.4104 61.6391 31.1483C63.2536 32.2671 65.0367 33.8619 65.3741 34.5046C65.8561 35.4567 65.8079 36.6706 65.2296 37.2895C63.9765 38.5987 60.5307 39.6698 55.3981 40.3125C50.8921 40.86 37.5668 40.8123 30.651 40.1935C24.651 39.6698 21.7835 39.3603 20.0485 39.0271C19.3979 38.9082 18.3376 38.7415 17.7111 38.6463C16.5063 38.4796 16.0244 38.1464 16.5786 37.7894C16.7714 37.6704 18.169 37.5752 19.7111 37.5752C21.2534 37.5752 22.8438 37.4562 23.2775 37.3134C24.5305 36.8848 24.916 35.5995 24.0245 34.7188C23.5908 34.2903 23.2293 34.2428 20.7955 34.2428H18.0726L18.1931 33.0764C18.3376 31.553 18.1449 30.8865 17.3738 29.9583C16.7714 29.2679 16.6509 29.2203 15.181 29.2679C13.0605 29.3393 12.7955 28.9823 14.4581 28.2205C16.5786 27.2685 18.5064 25.9355 19.8799 24.5074C21.2293 23.103 22.675 21.1036 23.0606 20.0801C23.2534 19.5801 23.4461 19.485 24.1931 19.485C24.6991 19.485 25.3498 19.5564 25.6389 19.6278ZM-15.3734 21.0083C-14.6264 21.3178 -14.53 21.4606 -14.7469 21.7224C-15.012 22.008 -15.1806 22.008 -16.0481 21.6034C-17.9999 20.7464 -21.1325 21.3178 -22.5783 22.7935C-24.2168 24.4835 -23.3976 27.0066 -20.7951 28.2205C-20.024 28.5777 -19.3734 28.9586 -19.3734 29.03C-19.3493 29.2918 -21.6145 29.506 -22.506 29.3393C-24.482 28.9347 -25.1807 27.7921 -24.5542 25.9117C-23.1325 21.651 -19.0843 19.485 -15.3734 21.0083ZM-18.0481 24.9834C-18.3614 25.6023 -18.506 25.6975 -19.0602 25.5547C-19.8795 25.3643 -20.3855 24.9358 -20.1445 24.6978C-19.9036 24.4597 -18.0963 24.0551 -17.8554 24.1741C-17.7349 24.2218 -17.8313 24.6025 -18.0481 24.9834ZM11.8556 32.3147C11.928 32.5527 12.3376 32.9098 12.7473 33.0764C13.3979 33.3382 13.5906 33.3145 14.193 32.9812L14.8919 32.5766L14.8195 33.2431C14.7473 33.7905 14.6268 33.9095 13.9039 33.9571C13.181 34.0286 10.434 33.4096 10.0484 33.1003C9.9039 33.005 11.2774 31.8624 11.5424 31.8624C11.6388 31.8624 11.7593 32.0766 11.8556 32.3147ZM70.1452 32.8384C71.6875 33.2668 72.6514 34.0286 73.1815 35.2425C73.832 36.7659 73.7839 37.3371 72.8922 38.6701C71.9525 40.0744 70.0971 41.0742 68.1211 41.3122L66.7959 41.455L67.3501 40.86C67.6634 40.5267 68.5307 40.0744 69.3501 39.8365C71.3019 39.2414 72.2176 38.2417 72.2176 36.6944C72.2176 36.0279 72.0249 35.3139 71.7356 34.814C71.2055 34.0047 69.567 33.0526 68.6512 33.0526C68.3621 33.0526 68.1211 32.9336 68.1211 32.8145C68.1211 32.5052 68.9645 32.5052 70.1452 32.8384ZM-12.0722 34.5046C-4.91551 37.1229 6.62677 40.0982 13.6629 41.1694C14.6509 41.3122 16.0726 41.5741 16.7955 41.7406C17.5184 41.9073 19.0365 42.169 20.169 42.312C21.3015 42.4548 23.4703 42.7166 24.9883 42.9071C30.1691 43.5735 34.9643 43.7877 44.2655 43.7877C51.2776 43.7877 54.2656 43.7163 56.5547 43.4306C58.1934 43.2164 59.591 43.0499 59.6391 43.0499C60.0247 43.0499 59.109 43.6449 57.4464 44.478C56.362 45.0493 55.3017 45.6444 55.0849 45.8109C54.8921 46.0014 54.603 46.1442 54.4825 46.1442C54.362 46.1442 53.8801 46.406 53.4222 46.7155C52.9644 47.0249 51.2295 47.9771 49.5667 48.8339C43.2776 52.0949 43.4221 52.0235 40.2896 52.4281C36.3619 52.9518 23.8799 52.9518 19.8075 52.452C18.2171 52.2616 15.8798 51.9759 14.6268 51.8331C10.1208 51.3333 2.60261 49.2385 -1.03596 47.5009C-2.9396 46.5965 -6.21672 43.6687 -10.0963 39.3603C-12.53 36.6469 -14.6505 33.7667 -14.1927 33.7667C-14.1204 33.7667 -13.1806 34.1 -12.0722 34.5046ZM11.2051 36.742C12.0244 36.9801 12.6268 37.242 12.5545 37.3609C12.3858 37.6466 10.9159 37.6227 10.2171 37.3134C9.59065 37.0276 8.7714 35.9804 9.37377 36.1946C9.56652 36.266 10.3858 36.5278 11.2051 36.742Z" fill="black" stroke="white"/>
</g>
</g>
<rect x="1" y="1" width="48" height="48" rx="24" stroke="black"/>
<defs>
<clipPath id="clip0_833_5">
<rect x="1" y="1" width="48" height="48" rx="24" fill="white"/>
</clipPath>
</defs>
</svg>
